# xmcd
#
# Track frame offsets:
#	150
#	14102
#	29946
#	47237
#	63420
#	80922
#	96985
#	114626
#	128885
#	142106
#	160003
#	174339
#
# Disc length: 2520 seconds
#
# Revision: 1
# Processed by: cddbd v1.5.2PL0 Copyright (c) Steve Scherf et al.
# Submitted via: audiograbber 1.83.01
#
DISCID=b409d60c
DTITLE=Michelle Wright - Everything and More
DYEAR=2006
DGENRE=Country
TTITLE0=Dance In the Boat
TTITLE1=Everything and More
TTITLE2=I've Forgotten You
TTITLE3=I Don't Wanna Be That Strong
TTITLE4=In the Blink of an Eye
TTITLE5=Like an Angel
TTITLE6=Love Me Anyway
TTITLE7=My Give a Damn's Busted
TTITLE8=Riding Around the Sun
TTITLE9=Something Wild
TTITLE10=Voodoo
TTITLE11=You Can't Lose Them All
EXTD=
EXTT0=
EXTT1=
EXTT2=
EXTT3=
EXTT4=
EXTT5=
EXTT6=
EXTT7=
EXTT8=
EXTT9=
EXTT10=
EXTT11=
PLAYORDER=
